<?xml version="1.0" encoding="UTF-8"?>
<!DOCTYPE svg PUBLIC "-//W3C//DTD SVG 1.1//EN" "http://www.w3.org/Graphics/SVG/1.1/DTD/svg11.dtd">
<svg xmlns="http://www.w3.org/2000/svg" version="1.1" width="16px" height="16px" style="shape-rendering:geometricPrecision; text-rendering:geometricPrecision; image-rendering:optimizeQuality; fill-rule:evenodd; clip-rule:evenodd" xmlns:xlink="http://www.w3.org/1999/xlink">
<g><path style="opacity:0.98" fill="#f5f5f5" d="M -0.5,-0.5 C 4.83333,-0.5 10.1667,-0.5 15.5,-0.5C 15.5,0.5 15.5,1.5 15.5,2.5C 14.1733,3.80014 12.84,5.13347 11.5,6.5C 11.0941,5.4425 11.0941,4.10917 11.5,2.5C 10.1266,2.34332 8.79323,2.50999 7.5,3C 6.26166,3.68999 6.26166,4.18999 7.5,4.5C 7.15829,5.33825 6.49162,5.67158 5.5,5.5C 5.27825,2.92357 3.94491,2.09024 1.5,3C 0.978136,3.5613 0.644803,4.22797 0.5,5C 1.2887,6.62554 2.2887,8.12554 3.5,9.5C 2.67504,10.3857 1.67504,10.719 0.5,10.5C 0.737305,9.20895 0.403972,8.20895 -0.5,7.5C -0.5,4.83333 -0.5,2.16667 -0.5,-0.5 Z"/></g>
<g><path style="opacity:0.982" fill="#f7f7f7" d="M 7.5,4.5 C 7.6467,7.02664 7.98003,9.69331 8.5,12.5C 9.66228,7.56555 10.9956,7.39888 12.5,12C 13.448,12.4828 14.448,12.6495 15.5,12.5C 15.5,13.5 15.5,14.5 15.5,15.5C 10.1667,15.5 4.83333,15.5 -0.5,15.5C -0.5,14.5 -0.5,13.5 -0.5,12.5C 1.72241,12.822 3.55575,12.1554 5,10.5C 4.90401,8.61935 5.07068,6.95269 5.5,5.5C 6.49162,5.67158 7.15829,5.33825 7.5,4.5 Z"/></g>
<g><path style="opacity:1" fill="#f5f5f5" d="M 15.5,5.5 C 15.5,7.16667 15.5,8.83333 15.5,10.5C 13.1493,9.08387 13.1493,7.41721 15.5,5.5 Z"/></g>
<g><path style="opacity:1" fill="#656565" d="M 5.5,5.5 C 5.07068,6.95269 4.90401,8.61935 5,10.5C 3.55575,12.1554 1.72241,12.822 -0.5,12.5C -0.5,10.8333 -0.5,9.16667 -0.5,7.5C 0.403972,8.20895 0.737305,9.20895 0.5,10.5C 1.67504,10.719 2.67504,10.3857 3.5,9.5C 2.2887,8.12554 1.2887,6.62554 0.5,5C 0.644803,4.22797 0.978136,3.5613 1.5,3C 3.94491,2.09024 5.27825,2.92357 5.5,5.5 Z"/></g>
<g><path style="opacity:1" fill="#6c6c6c" d="M 15.5,2.5 C 15.5,3.5 15.5,4.5 15.5,5.5C 13.1493,7.41721 13.1493,9.08387 15.5,10.5C 15.5,11.1667 15.5,11.8333 15.5,12.5C 14.448,12.6495 13.448,12.4828 12.5,12C 10.9956,7.39888 9.66228,7.56555 8.5,12.5C 7.98003,9.69331 7.6467,7.02664 7.5,4.5C 6.26166,4.18999 6.26166,3.68999 7.5,3C 8.79323,2.50999 10.1266,2.34332 11.5,2.5C 11.0941,4.10917 11.0941,5.4425 11.5,6.5C 12.84,5.13347 14.1733,3.80014 15.5,2.5 Z"/></g>
</svg>
